<?xml version="1.0" encoding="UTF-8"?>
<svg width="34px" height="34px" viewBox="0 0 34 34" version="1.1" xmlns="http://www.w3.org/2000/svg" xmlns:xlink="http://www.w3.org/1999/xlink">
    <!-- Generator: Sketch 51.3 (57544) - http://www.bohemiancoding.com/sketch -->
    <title>QQ</title>
    <desc>Created with Sketch.</desc>
    <defs></defs>
    <g id="新增功能2.0" stroke="none" stroke-width="1" fill="none" fill-rule="evenodd">
        <g id="登录（新增2.0）2" transform="translate(-1201.000000, -756.000000)" fill="#0091EA" fill-rule="nonzero">
            <g id="Group-10" transform="translate(1121.000000, 322.000000)">
                <g id="QQ" transform="translate(80.000000, 434.000000)">
                    <path d="M17,0 C7.61090001,0 0,7.61090001 0,17 C0,26.3891 7.61090001,34 17,34 C26.3891,34 34,26.3891 34,17 C34,7.61090001 26.3891,0 17,0 Z M26.8396,22.4145 C26.39675,22.82675 25.63685,22.3771 24.90755,21.3673 C24.5996628,22.1974332 24.1932923,22.9876297 23.69715,23.72095 C24.7299,24.08985 25.39375,24.66445 25.39375,25.31385 C25.39375,26.435 23.40985,27.34195 20.961,27.34195 C19.50835,27.34195 18.224,27.0249 17.4131,26.5319 C16.609,27.0249 15.3187,27.34195 13.8652,27.34195 C11.41635,27.34195 9.43245001,26.43585 9.43245001,25.31385 C9.43245001,24.6721 10.0963,24.08985 11.12905,23.72095 C10.6302552,22.9893374 10.2239803,22.1987715 9.91950002,21.3673 C9.18935002,22.37115 8.42945,22.8276 7.98745001,22.4145 C7.38310002,21.84585 7.61175001,19.8407 8.51105002,17.93755 C8.71760001,17.5015 8.93860002,17.1105 9.16725001,16.77135 C9.29305001,11.2404 12.93615,6.79999999 17.4063,6.79999999 L17.42075,6.79999999 C21.89005,6.79999999 25.53315,11.23275 25.6598,16.7722 C25.88845,17.11135 26.10945,17.50235 26.31515,17.9384 C27.2085,19.8407 27.44395,21.84585 26.8396,22.4145 Z" id="Shape"></path>
                </g>
            </g>
        </g>
    </g>
</svg>