<?xml version="1.0" encoding="UTF-8"?>
<svg width="35px" height="34px" viewBox="0 0 35 34" version="1.1" xmlns="http://www.w3.org/2000/svg" xmlns:xlink="http://www.w3.org/1999/xlink">
    <!-- Generator: Sketch 51.3 (57544) - http://www.bohemiancoding.com/sketch -->
    <title>支付宝</title>
    <desc>Created with Sketch.</desc>
    <defs></defs>
    <g id="新增功能2.0" stroke="none" stroke-width="1" fill="none" fill-rule="evenodd">
        <g id="登录（新增2.0）2" transform="translate(-1371.000000, -756.000000)" fill="#189FE4" fill-rule="nonzero">
            <g id="Group-10" transform="translate(1121.000000, 322.000000)">
                <g id="支付宝" transform="translate(250.666667, 434.000000)">
                    <path d="M6.33120544,23.0278348 C6.33120544,20.7087818 8.03055766,19.4732971 9.26673182,19.3182801 C12.9721561,18.6997626 18.0686637,21.7907998 18.0686636,21.7907998 C15.7527734,24.7268201 12.5089781,26.2707885 10.0381788,26.2707885 C7.87564859,26.1173218 6.33120544,24.881837 6.33120544,23.0278348 Z M32.5851901,24.2633195 C32.122012,24.1083026 21.620728,20.8637987 21.9305461,20.5537649 C23.4749892,18.6997626 24.5547053,14.3732407 24.5547053,14.3732407 L24.5547053,13.4446894 L18.3784817,13.4446894 L18.3784817,11.1271866 L25.9457885,11.1271866 L25.9457885,9.73668498 L18.3784817,9.73668498 L18.3784817,6.33716416 L15.2895954,6.33716416 L15.2895954,9.58166808 L8.49373569,9.58166808 L8.49373569,10.9721697 L15.2895954,10.9721697 L15.2895954,13.2912227 L9.8832698,13.2912227 L9.8832698,14.2182238 L21.0026409,14.2182238 C21.0026409,14.6832746 20.2311939,17.7727615 19.4581977,19.1632632 C19.3032887,18.8532294 14.3616902,17.1542441 11.582622,16.9992272 C8.64864469,17.1542441 6.33120541,18.0812452 5.25148941,20.2452812 C3.70704626,24.2633195 6.17784549,28.2813578 11.737531,28.2813578 C12.6638871,28.2813578 17.1423076,27.8178573 20.5394629,23.1813015 C21.4658189,23.6463523 26.7172355,26.2723387 29.9610309,27.971324 C26.8721445,31.6824288 22.2388151,33.9999316 16.9873985,33.9999316 C12.4781673,34.0127421 8.1499326,32.225879 4.9614118,29.035138 C1.772891,25.8443969 -0.0127287619,21.5131484 7.2836569e-05,17.0007773 C-0.0131419209,12.488138 1.77229543,8.15649006 4.96086123,4.96541303 C8.14942704,1.774336 12.4778981,-0.0127395674 16.9873985,7.29004355e-05 C21.497167,-0.0131530389 25.8260372,1.77373999 29.0149388,4.96486206 C32.2038403,8.15598413 33.98949,12.4878686 33.9762732,17.0007773 C34.1311823,19.7817807 33.5115461,22.1008337 32.5851901,24.2633195 Z" id="Shape"></path>
                </g>
            </g>
        </g>
    </g>
</svg>