<?xml version="1.0" encoding="UTF-8"?>
<svg width="35px" height="34px" viewBox="0 0 35 34" version="1.1" xmlns="http://www.w3.org/2000/svg" xmlns:xlink="http://www.w3.org/1999/xlink">
    <!-- Generator: Sketch 51.3 (57544) - http://www.bohemiancoding.com/sketch -->
    <title>新浪</title>
    <desc>Created with Sketch.</desc>
    <defs></defs>
    <g id="新增功能2.0" stroke="none" stroke-width="1" fill="none" fill-rule="evenodd">
        <g id="登录（新增2.0）2" transform="translate(-1286.000000, -756.000000)" fill="#D72829" fill-rule="nonzero">
            <g id="Group-10" transform="translate(1121.000000, 322.000000)">
                <g id="新浪" transform="translate(165.333333, 434.000000)">
                    <path d="M17,0 C7.60321101,0 0,7.60321101 0,17 C0,26.396789 7.60321101,34 17,34 C26.396789,34 34,26.396789 34,17 C34,7.60321101 26.396789,0 17,0 Z M26.396789,15.9082569 C26.3188073,16.4541284 26.0458716,16.5321101 25.6949541,16.5321101 C25.3050458,16.5321101 24.9931192,16.2981652 24.9931193,15.869266 C24.9931193,15.5183486 25.1490826,15.1674312 25.1490826,15.1674312 C25.1880734,15.0114679 25.5389908,14.1146789 24.9151376,12.7889908 C23.8233945,10.956422 21.6009174,10.9174312 21.3669725,11.0344037 C21.0940367,11.1513761 20.7041285,11.190367 20.7041285,11.190367 C20.3142202,11.190367 20.0022936,10.8784404 20.0022936,10.4885321 C20.0022936,10.1376147 20.2362385,9.86467889 20.5091743,9.78669726 C20.5481651,9.78669726 20.5481651,9.74770645 20.5871559,9.74770642 C20.8990826,9.66972476 21.9908257,9.47477062 23.043578,9.7087156 C24.9541284,10.1376147 27.5665137,11.9701835 26.396789,15.9082569 Z M21.1720183,13.2568807 C20.8990826,13.2568807 20.6651376,13.0229358 20.6651376,12.75 C20.6651376,12.4770642 20.8990826,12.2431192 21.1720183,12.2431193 C21.1720183,12.2431193 24.2522936,11.6582569 23.9013761,14.9724771 L23.9013761,15.0114679 C23.8623853,15.2454128 23.6674312,15.440367 23.4334862,15.440367 C23.1605504,15.440367 22.9266055,15.206422 22.9266055,14.9334862 C22.9266055,14.9724771 23.3944954,12.7889908 21.1720183,13.2568807 Z M21.4449541,14.1926606 C22.2637615,15.0114679 21.6009174,16.1811927 21.6009174,16.1811926 C21.6009175,16.1811926 21.25,16.5711009 21.9518349,16.6880734 C22.6536697,16.8440367 24.9151376,17.8577982 23.6674312,20.5091743 C22.4197247,23.1215596 18.3646789,24.4082569 15.3233945,24.1743119 C12.4380734,23.940367 8.77293578,23.0045872 8.38302754,19.5344037 C8.38302754,19.5344037 8.18807341,17.9747706 9.7087156,15.9082569 C9.7087156,15.9082569 11.8922018,12.8279817 14.4655963,11.9701835 C17.0389908,11.1123853 17.3119266,12.5550459 17.3119266,13.4518349 C17.1949541,14.1926606 16.9220183,14.6215596 17.896789,14.309633 C17.896789,14.3486238 20.3922018,13.1788991 21.4449541,14.1926606 Z M15.5573395,16.103211 C12.5550459,16.2591743 10.1376147,17.8577982 10.1376147,19.8463303 C10.1376147,21.8348624 12.5550459,23.3555046 15.5573395,23.1995413 C18.559633,23.0825688 20.9770642,21.1720183 20.9770642,19.1834862 C20.9770642,17.1949541 18.559633,15.9472477 15.5573395,16.103211 Z M13.1009174,21.9518349 C12.2431193,21.483945 12.2821101,20.5871559 12.2821101,20.5871559 C12.2821101,20.5871559 11.9311927,17.7798165 14.9724771,17.4288991 C17.9747706,17.0779817 18.5206422,19.9633028 17.6238532,21.1720183 C16.6880734,22.3417431 14.8555046,22.9266055 13.1009174,21.9518349 Z M14.1536697,19.6513762 C13.6077982,19.7293578 13.1788991,20.1972477 13.1788991,20.6651376 C13.1788991,21.1330275 13.646789,21.4449541 14.1926606,21.4059633 C14.7385321,21.3279816 15.206422,20.8990826 15.206422,20.4311927 C15.206422,19.9633028 14.7775229,19.5733945 14.1536697,19.6513762 Z M16.1422018,19.3004587 C16.0252294,19.1444954 15.7912844,19.0665138 15.5963303,19.2614679 C15.4013761,19.4174312 15.3623853,19.6513762 15.4793578,19.8463303 C15.5963303,20.0022936 15.8302752,20.0412844 16.0252294,19.8853211 C16.1422018,19.7293578 16.2201835,19.456422 16.1422018,19.3004587 Z" id="Shape"></path>
                </g>
            </g>
        </g>
    </g>
</svg>