<?xml version="1.0" encoding="UTF-8"?>
<svg width="34px" height="34px" viewBox="0 0 34 34" version="1.1" xmlns="http://www.w3.org/2000/svg" xmlns:xlink="http://www.w3.org/1999/xlink">
    <!-- Generator: Sketch 51.3 (57544) - http://www.bohemiancoding.com/sketch -->
    <title>淘宝</title>
    <desc>Created with Sketch.</desc>
    <defs></defs>
    <g id="新增功能2.0" stroke="none" stroke-width="1" fill="none" fill-rule="evenodd">
        <g id="登录（新增2.0）2" transform="translate(-1457.000000, -756.000000)" fill="#FC4F00" fill-rule="nonzero">
            <g id="Group-10" transform="translate(1121.000000, 322.000000)">
                <g id="淘宝" transform="translate(336.000000, 434.000000)">
                    <path d="M16.2598578,11.7221422 L17.2739267,12.6507956 L16.76676,13.1995556 L23.3138756,13.1995556 L23.3347667,14.7198089 L19.2594511,14.7405489 L19.2594511,16.7042378 L23.2919644,16.7679311 L23.2919644,17.7601267 L19.2801911,17.7601267 L19.2594511,21.3076111 C20.6106111,21.34928 21.0540089,20.7795533 21.0540089,20.7795533 L20.58972,19.8499556 L23.0176978,18.4352533 L24.3050889,21.30644 L24.3050889,12.6695711 C22.7640956,8.69958 16.2586867,11.7190067 16.2586867,11.7190067 L16.2598578,11.7221422 Z M16.9994333,0 C7.61127778,0 0,7.61241111 0,17.0005667 C0,26.3887222 7.61127778,34 16.9994333,34 C26.3887222,34 34,26.3887222 34,17.0005667 C34,7.61241111 26.3887222,0 16.9994333,0 Z M8.51076667,8.06619778 C9.63019778,8.06619778 10.53796,8.97392222 10.53796,10.0933911 C10.53796,11.2130489 9.63023556,12.1207733 8.51076667,12.1207733 C7.39110889,12.1207733 6.48338444,11.2130489 6.48338444,10.0933911 C6.48338444,8.97396 7.39110889,8.06619778 8.51076667,8.06619778 Z M10.5795911,19.3855911 L7.6228,25.46736 L4.45520889,23.4401667 L8.63690667,18.8785756 C9.22752444,18.1178822 8.63690667,17.1894178 8.63690667,17.1894178 L5.55374889,14.5288044 L6.90608,12.6705156 C6.90608,12.6705156 8.38447556,13.8109133 10.0101289,15.4156378 C11.6355556,17.0203622 10.5795911,19.3855911 10.5795911,19.3855911 Z M28.0235933,22.4260978 C28.0235933,22.4260978 27.7702178,26.0161956 24.2655356,25.9317244 C20.7608911,25.8472533 20.7587756,25.9317244 20.7587756,25.9317244 L19.7445556,25.9328578 C19.7445556,25.9328578 19.1540889,25.1084711 19.7664289,23.8836022 C19.7664289,23.8836022 21.0540089,23.6718956 21.2647711,24.3907311 L22.7432422,24.3907311 C22.7432422,24.3907311 24.1788356,24.1162756 24.2841978,21.8563711 L22.2570044,23.3764356 L21.5183733,21.8772622 C21.5183733,21.8772622 18.8358489,24.0307844 16.6395244,23.8835644 L13.6617667,23.8835644 C13.6617667,23.8835644 11.7190067,23.3776067 11.6136444,20.8213733 L11.6136444,18.8358111 L14.6551333,18.8358111 C14.6551333,18.8358111 14.3378378,21.9617333 16.1335289,21.8135689 L16.1751978,17.8008511 L11.6136444,17.8008511 L11.6136444,16.7867444 L16.1752356,16.7867444 L16.1544956,14.7802911 L15.4992022,14.7593622 L13.6409133,16.59676 L12.4160444,15.4991267 L14.7177311,13.2183689 L14.6540378,12.1833711 L11.7607511,14.8439844 L10.0080511,13.0910956 C10.0080511,13.0910956 12.3304778,11.5917711 13.0911711,8.06521556 L15.6880911,8.72035778 L15.2665667,10.0924467 C15.2665667,10.0924467 26.5849778,5.95336222 28.0217422,13.1755667 L28.0217422,22.4249644 L28.0235933,22.4260978 Z" id="Shape"></path>
                </g>
            </g>
        </g>
    </g>
</svg>